 <svg viewBox="0 0 1024 1024" xmlns="http://www.w3.org/2000/svg">
    <path
      d="M431.2064 106.9056a37.888 37.888 0 0 0-41.6768 8.704L198.656 308.0192H103.936a38.3488 38.3488 0 0 0-38.656 38.5024v331.008c0 21.4528 17.152 38.5024 38.656 38.5024h94.72l191.5904 192.4096c7.424 7.4752 17.408 11.52 27.5456 11.52a32.2048 32.2048 0 0 0 13.4144-2.8672c14.5408-6.0416 22.6304-20.1728 22.6304-35.8912V142.848c0-15.7184-8.0896-29.9008-22.6304-35.9424zM376.1152 787.0976l-135.1168-137.216a35.9424 35.9424 0 0 0-26.112-11.5712H142.9504V385.7408h71.8336a35.9424 35.9424 0 0 0 26.1632-11.6224l135.168-137.216v550.1952z m205.824-110.592a38.7584 38.7584 0 0 1-54.9376 3.072 38.8608 38.8608 0 0 1-3.072-54.8352c97.024-108.544 10.1376-213.9136-0.1024-225.536a38.912 38.912 0 0 1 58.0608-51.712c50.8928 56.9344 116.3776 198.912 0 329.0112z m117.4016 103.936a38.7584 38.7584 0 0 1-54.8864 3.1232 38.8608 38.8608 0 0 1-3.072-54.8864c191.488-214.1696 7.8848-424.448 0-433.3056a38.8608 38.8608 0 1 1 57.9584-51.8144c2.4064 2.6624 237.312 271.5136 0 536.9344z"
      p-id="3664"
      fill="#FFFFFF"
    />
  </svg>