<svg viewBox="0 0 1024 1024" xmlns="http://www.w3.org/2000/svg">
    <path
      d="M431.2064 106.9056a37.888 37.888 0 0 0-41.6768 8.704L198.656 308.0192H103.936a38.3488 38.3488 0 0 0-38.656 38.5024v331.008c0 21.4528 17.152 38.5024 38.656 38.5024h94.72l191.5904 192.4096c7.424 7.4752 17.408 11.52 27.5456 11.52a32.2048 32.2048 0 0 0 13.4144-2.8672c14.5408-6.0416 22.6304-20.1728 22.6304-35.8912V142.848c0-15.7184-8.0896-29.9008-22.6304-35.9424zM376.1152 787.0976l-135.1168-137.216a35.9424 35.9424 0 0 0-26.112-11.5712H142.9504V385.7408h71.8336a35.9424 35.9424 0 0 0 26.1632-11.6224l135.168-137.216v550.1952z"
      p-id="3882"
      fill="#ffffff"
    />
    <path
      d="M768.768 512l90.88 90.88a36.7104 36.7104 0 1 1-51.968 51.968L716.8 563.968l-90.88 90.88a36.7104 36.7104 0 1 1-51.968-51.968L664.832 512 573.952 421.12a36.7104 36.7104 0 1 1 51.968-51.968L716.8 460.032l90.88-90.88a36.7104 36.7104 0 1 1 51.968 51.968L768.768 512z"
      p-id="3883"
      fill="#ffffff"
    />
  </svg>