<svg width="24px" height="20px" viewBox="0 0 24 20" version="1.1" >
        <title>弹幕关闭</title>
        <g id="直播-app内观看" stroke="none" strokeWidth="1" fill="none" fillRule="evenodd">
            <g id="编组-8" transform="translate(-1314.500000, -463.000000)">
                <g id="弹幕关闭" transform="translate(1315.000000, 463.000000)">
                    <path d="M16.5,0 C17.3284271,0 18,0.671572875 18,1.5 L18,8 L16.5,8 L16.5,1.5 L1.5,1.5 L1.5,16.5 L10,16.5 L10,18 L1.5,18 C0.671572875,18 0,17.3284271 0,16.5 L0,1.5 C0,0.671572875 0.671572875,0 1.5,0 L16.5,0 Z" id="形状结合" fill="#FFFFFF" fillRule="nonzero"></path>
                    <path d="M11.4900958,14.6044815 L11.4900958,12.4204815 L14.4660958,12.4204815 L14.4660958,11.3524815 L11.4900958,11.3524815 L11.4900958,10.3564815 L13.9860958,10.3564815 L13.9860958,5.37648151 L12.5340958,5.37648151 C12.8300958,4.92048151 13.1140958,4.38448151 13.3860958,3.76848151 L13.3860958,3.76848151 L12.2940958,3.39648151 C12.0300958,4.09248151 11.7300958,4.75248151 11.3940958,5.37648151 L11.3940958,5.37648151 L9.63009576,5.37648151 L10.4340958,5.01648151 C10.1620958,4.46448151 9.86209576,3.95248151 9.53409576,3.48048151 L9.53409576,3.48048151 L8.49009576,3.81648151 C8.83409576,4.28048151 9.14609576,4.80048151 9.42609576,5.37648151 L9.42609576,5.37648151 L7.92609576,5.37648151 L7.92609576,10.3564815 L10.3740958,10.3564815 L10.3740958,11.3524815 L7.47009576,11.3524815 L7.47009576,12.4204815 L10.3740958,12.4204815 L10.3740958,14.6044815 L11.4900958,14.6044815 Z M5.10609576,14.4844815 C6.19409576,14.4204815 6.81009576,14.0444815 6.95409576,13.3564815 C7.08209576,12.6364815 7.14609576,11.2724815 7.14609576,9.26448151 L7.14609576,9.26448151 L4.68609576,9.26448151 L4.86609576,7.54848151 L7.06209576,7.54848151 L7.06209576,3.93648151 L3.65409576,3.93648151 L3.65409576,4.92048151 L5.94609576,4.92048151 L5.94609576,6.56448151 L3.87009576,6.56448151 L3.53409576,10.2484815 L6.06609576,10.2484815 C6.06609576,11.5684815 6.01809576,12.4324815 5.92209576,12.8404815 C5.82609576,13.2404815 5.46609576,13.4404815 4.84209576,13.4404815 C4.54609576,13.4404815 4.23009576,13.4204815 3.89409576,13.3804815 L3.89409576,13.3804815 L4.18209576,14.4364815 C4.59809576,14.4684815 4.90609576,14.4844815 5.10609576,14.4844815 Z M10.3740958,7.41648151 L8.93409576,7.41648151 L8.93409576,6.33648151 L10.3740958,6.33648151 L10.3740958,7.41648151 Z M12.9780958,7.41648151 L11.4900958,7.41648151 L11.4900958,6.33648151 L12.9780958,6.33648151 L12.9780958,7.41648151 Z M12.9780958,9.40848151 L11.4900958,9.40848151 L11.4900958,8.36448151 L12.9780958,8.36448151 L12.9780958,9.40848151 Z M10.3740958,9.40848151 L8.93409576,9.40848151 L8.93409576,8.36448151 L10.3740958,8.36448151 L10.3740958,9.40848151 Z" id="形状结合" fill="#FFFFFF" fillRule="nonzero"></path>
                    <path d="M17,10 C19.7614237,10 22,12.2385763 22,15 C22,17.7614237 19.7614237,20 17,20 C14.2385763,20 12,17.7614237 12,15 C12,12.2385763 14.2385763,10 17,10 Z M19.9198192,13.0693693 L15.0693693,17.9198192 C15.6227642,18.2864685 16.2864456,18.5 17,18.5 C18.9329966,18.5 20.5,16.9329966 20.5,15 C20.5,14.2864456 20.2864685,13.6227642 19.9198192,13.0693693 Z M17,11.5 C15.0670034,11.5 13.5,13.0670034 13.5,15 C13.5,15.7135544 13.7135315,16.3772358 14.0801808,16.9306307 L18.9306307,12.0801808 C18.3772358,11.7135315 17.7135544,11.5 17,11.5 Z" id="形状结合" fill="#FFFFFF" fillRule="nonzero"></path>
                    <rect id="矩形" x="0" y="0" width="24" height="20"></rect>
                </g>
            </g>
        </g>
    </svg>
