<svg viewBox="0 0 1024 1024" xmlns="http://www.w3.org/2000/svg">
    <path
      d="M218.688 168.64l128.448-0.576c19.008 0.512 36.608-13.632 39.488-37.76v-26.112c-0.448-20.48-16.128-37.44-35.2-37.888L106.24 67.84c-0.384 0-0.64-0.192-0.96-0.192l-17.152-0.384a31.36 31.36 0 0 0-24.128 10.368c-6.144 6.592-8.384 15.808-8.192 26.112l1.92 18.56c0 0.384-1.28 0.64-1.28 1.024l0.896 265.472c0.448 20.48 16.128 32.704 35.2 33.152h25.536c19.008 0.448 34.112-17.28 33.664-37.76l-1.088-144.384 169.152 179.2c18.368 19.84 48.128 19.84 66.56 0a53.696 53.696 0 0 0 0-71.68L218.688 168.576z m729.6 731.264c0-0.448 1.28-0.704 1.28-1.088L948.48 637.44c-0.512-20.48-16.192-32.64-35.2-33.088l-24.128-0.064c-18.944-0.448-34.112 17.408-33.6 37.824l1.024 141.248-169.088-180.352a44.544 44.544 0 0 0-66.56 0 53.568 53.568 0 0 0 0 71.744l169.152 180.224-128.32 0.576c-18.944-0.448-36.544 12.16-39.488 36.288v26.048c0.512 20.48 16.256 37.44 35.2 37.952l242.176-1.536 0.96 0.128 17.152 0.448a31.36 31.36 0 0 0 24.128-10.432c6.208-6.528 8.384-15.744 8.192-26.048l-1.856-18.56zM386.24 603.008a44.608 44.608 0 0 0-66.56 0l-169.088 179.2 1.024-142.08c0.448-20.48-14.656-38.4-33.6-37.888h-25.6c-19.008 0.512-34.688 12.672-35.136 33.216L56.32 898.752c0 0.384 1.28 0.64 1.28 1.024l-1.856 18.56c-0.192 10.24 1.984 19.52 8.192 26.048a31.36 31.36 0 0 0 24.064 10.368l17.216-0.448 0.96-0.128 245.248 1.6c19.008-0.576 34.752-17.472 35.2-38.016v-26.048c-2.88-24.128-20.48-36.736-39.424-36.288l-129.92-0.448 168.96-180.224a53.632 53.632 0 0 0 0-71.744z m555.776-525.376a31.232 31.232 0 0 0-24.128-10.304l-17.152 0.384c-0.384 0-0.64 0.128-1.024 0.192l-245.632-1.6c-19.008 0.512-34.752 17.472-35.2 37.952v26.048c2.88 24.192 20.48 38.336 39.424 37.888l130.368 0.512-167.488 178.688a53.44 53.44 0 0 0 0 71.68c18.304 19.84 48 19.84 66.432 0l169.152-180.352-1.088 145.472c-0.448 20.48 14.72 38.272 33.6 37.824h24.192c18.944-0.512 34.688-12.736 35.2-33.152l0.96-265.536c0-0.384-1.28-0.64-1.28-1.024l1.856-18.56c0.192-10.24-2.048-19.52-8.192-26.112z"
      p-id="2901"
      fill="#ffffff"
    />
  </svg>
