

   <svg viewBox="0 0 1024 1024" xmlns="http://www.w3.org/2000/svg">
    <path
      d="M237.056 331.52l-128.448 0.64c-19.008-0.576-36.608 13.632-39.488 37.76v26.112c0.512 20.48 16.192 37.44 35.2 37.888l245.312-1.6 0.896 0.192 17.216 0.448a31.36 31.36 0 0 0 24.064-10.432c6.144-6.592 8.448-15.744 8.192-26.048l-1.856-18.56c0-0.384 1.28-0.64 1.28-1.024L398.464 111.36c-0.384-20.48-16.128-32.704-35.2-33.216h-25.472c-19.008-0.448-34.112 17.408-33.664 37.76l1.024 144.448-169.152-179.2a44.608 44.608 0 0 0-66.496 0 53.696 53.696 0 0 0 0 71.68l167.552 178.688z m372.096 312.576c0 0.448-1.28 0.704-1.28 1.088l1.024 261.376c0.512 20.416 16.192 32.64 35.2 33.088h24.192c18.88 0.512 34.048-17.28 33.6-37.76l-1.088-141.312 169.088 180.416c18.432 19.84 48.128 19.84 66.56 0a53.568 53.568 0 0 0 0-71.744l-169.152-180.288 128.32-0.512c18.944 0.448 36.544-12.16 39.488-36.288v-26.048c-0.512-20.48-16.256-37.504-35.2-37.952l-242.176 1.536-0.96-0.128-17.152-0.448a31.36 31.36 0 0 0-24.128 10.368c-6.208 6.528-8.384 15.808-8.192 26.112l1.856 18.496z m-539.648 296.768c18.368 19.84 48.128 19.84 66.56 0l169.088-179.2-1.088 142.08c-0.384 20.48 14.72 38.4 33.6 37.888h25.6c19.008-0.512 34.752-12.672 35.2-33.216l0.96-263.296c0-0.384-1.28-0.64-1.28-1.024l1.856-18.56c0.192-10.24-2.048-19.52-8.192-26.048a31.36 31.36 0 0 0-24.064-10.368l-17.216 0.448-0.96 0.128-245.312-1.6c-19.008 0.576-34.688 17.472-35.2 38.016v26.048c2.88 24.128 20.48 36.736 39.488 36.288l129.92 0.448-168.96 180.224a53.632 53.632 0 0 0 0 71.744z m546.048-518.272a31.232 31.232 0 0 0 24.128 10.368l17.152-0.384c0.384 0 0.64-0.192 1.024-0.256l245.632 1.6c19.008-0.448 34.688-17.408 35.2-37.888V369.92c-2.88-24.192-20.48-38.272-39.424-37.824l-130.368-0.576L936.32 152.96a53.44 53.44 0 0 0 0-71.68 44.544 44.544 0 0 0-66.432 0L700.8 261.568l1.088-145.472c0.448-20.48-14.72-38.336-33.6-37.888h-24.192c-18.944 0.512-34.688 12.8-35.2 33.216L608 376.896c0 0.448 1.28 0.64 1.28 1.088l-1.856 18.56c-0.192 10.24 2.048 19.456 8.192 26.048z"
      p-id="3446"
      fill="#ffffff"
    />
  </svg>